<?xml version="1.0" encoding="UTF-8" standalone="no"?>
<!-- Created with Inkscape (http://www.inkscape.org/) -->

<svg
   version="1.1"
   id="svg1"
   width="288.36133"
   height="92.115997"
   viewBox="0 0 288.36133 92.115994"
   xmlns="http://www.w3.org/2000/svg"
   xmlns:svg="http://www.w3.org/2000/svg">
  <defs
     id="defs1">
    <clipPath
       clipPathUnits="userSpaceOnUse"
       id="clipPath36">
      <path
         d="M 0,3258 H 1920 V 0 H 0 Z"
         transform="translate(-1853.5002,-3155.9134)"
         id="path36" />
    </clipPath>
    <clipPath
       clipPathUnits="userSpaceOnUse"
       id="clipPath39">
      <path
         d="M 0,3258 H 1920 V 0 H 0 Z"
         transform="translate(-1780.0236,-3189.263)"
         id="path39" />
    </clipPath>
    <clipPath
       clipPathUnits="userSpaceOnUse"
       id="clipPath41">
      <path
         d="M 0,3258 H 1920 V 0 H 0 Z"
         transform="translate(-1802.6497,-3182.9159)"
         id="path41" />
    </clipPath>
    <clipPath
       clipPathUnits="userSpaceOnUse"
       id="clipPath43">
      <path
         d="M 0,3258 H 1920 V 0 H 0 Z"
         transform="translate(-1795.9812,-3196.7459)"
         id="path43" />
    </clipPath>
  </defs>
  <g
     id="layer-MC0"
     transform="translate(-2190.1079,-43.999605)">
    <path
       id="path35"
       d="m 0,0 h -205.567 c -2.956,0 -5.352,2.396 -5.352,5.352 v 58.382 c 0,2.956 2.396,5.353 5.352,5.353 L 0,69.087 c 2.956,0 5.352,-2.397 5.352,-5.353 V 5.352 C 5.352,2.396 2.956,0 0,0"
       style="fill:#d5fc31;fill-opacity:1;fill-rule:nonzero;stroke:none"
       transform="matrix(1.3333333,0,0,-1.3333333,2471.3336,136.1156)"
       clip-path="url(#clipPath36)" />
    <path
       id="path37"
       d="M 15.656429,4.703125e-4 V -3.5620297 H 6.3751795 V -20.448748 H 2.3790857 V 4.703125e-4 Z M 30.64764,-7.4995297 c 0,-2.6953123 -0.351562,-4.3593753 -1.699218,-5.8007813 -0.949219,-1.007812 -2.4375,-1.839844 -4.652344,-1.839844 -2.214844,0 -3.679688,0.867188 -4.617188,1.839844 -1.359375,1.441406 -1.699218,3.105469 -1.699218,5.8007813 0,2.7070313 0.339843,4.3945313 1.699218,5.8359375 0.9375,0.97265626 2.402344,1.83984376 4.617188,1.83984376 2.214844,0 3.703125,-0.8671875 4.652344,-1.83984376 1.382812,-1.40625 1.699218,-3.1289062 1.699218,-5.8359375 z m -3.738281,0 c 0,1.5585938 -0.08203,2.90625 -0.855469,3.65625 -0.433593,0.421875 -1.007812,0.65625 -1.757812,0.65625 -0.714844,0 -1.289063,-0.234375 -1.722656,-0.65625 -0.773438,-0.75 -0.855469,-2.0976562 -0.855469,-3.65625 0,-1.5234375 0.08203,-2.8710933 0.855469,-3.6210933 0.433593,-0.421875 1.007812,-0.65625 1.722656,-0.65625 0.75,0 1.324219,0.234375 1.757812,0.65625 0.773438,0.75 0.855469,2.0976558 0.855469,3.6210933 z m 19.042969,6.94921876 V -14.964373 h -3.609375 v 1.40625 c -1.042969,-1.148438 -2.074219,-1.582032 -3.65625,-1.582032 -1.464844,0 -2.753906,0.492188 -3.585938,1.324219 -1.40625,1.40625 -1.523437,3.304688 -1.523437,5.9179688 0,2.6132813 0.117187,4.5351563 1.523437,5.9414063 0.832032,0.8320312 2.097657,1.32421871 3.5625,1.32421871 1.464844,0 2.578125,-0.39843751 3.5625,-1.48828121 v 1.52343746 c 0,1.51171875 -0.773437,3.09375004 -3.023437,3.09375004 -1.253906,0 -2.097656,-0.3398438 -2.929688,-1.1484375 l -2.320312,2.3554687 c 1.546875,1.5 3.128906,1.9570313 5.425781,1.9570313 4.019531,0 6.574219,-2.6132813 6.574219,-6.21093754 z M 42.225765,-7.8979672 c 0,1.9804688 -0.257812,3.9023438 -2.472656,3.9023438 -2.214844,0 -2.4375,-1.921875 -2.4375,-3.9023438 0,-1.9804687 0.222656,-3.8789058 2.4375,-3.8789058 2.214844,0 2.472656,1.8984371 2.472656,3.8789058 z M 61.092953,4.703125e-4 V -20.448748 H 57.096859 V 4.703125e-4 Z m 16.916016,0 V -9.5620297 c 0,-1.6406253 -0.316407,-3.0468753 -1.523438,-4.2539063 -0.832031,-0.832031 -2.039062,-1.324219 -3.527344,-1.324219 -1.382812,0 -2.753906,0.515625 -3.738281,1.558594 v -1.382812 H 65.575375 V 4.703125e-4 h 3.738281 V -9.0464047 c 0,-2.0390623 1.3125,-2.7304683 2.496094,-2.7304683 1.171875,0 2.472656,0.691406 2.472656,2.7304683 V 4.703125e-4 Z m 0,0"
       style="fill:#000000;fill-opacity:1;fill-rule:nonzero;stroke:none"
       aria-label=" Log In"
       transform="matrix(1.3333333,0,0,1.3333333,2251.4412,104.24547)" />
    <path
       id="path38"
       d="M 0,0 H 29.787"
       style="fill:none;stroke:#000000;stroke-width:2.128;stroke-linecap:butt;stroke-linejoin:miter;stroke-miterlimit:10;stroke-dasharray:none;stroke-opacity:1"
       transform="matrix(1.3333333,0,0,-1.3333333,2373.3648,91.649467)"
       clip-path="url(#clipPath39)" />
    <path
       id="path40"
       d="m 0,0 7.161,6.347 -7.447,7.447"
       style="fill:none;stroke:#000000;stroke-width:2.128;stroke-linecap:butt;stroke-linejoin:miter;stroke-miterlimit:10;stroke-dasharray:none;stroke-opacity:1"
       transform="matrix(1.3333333,0,0,-1.3333333,2403.5329,100.11227)"
       clip-path="url(#clipPath41)" />
    <path
       id="path42"
       d="M 0,0 V 7.447 H 22.341 V -21.277 H 0 v 6.383"
       style="fill:none;stroke:#000000;stroke-width:2.128;stroke-linecap:butt;stroke-linejoin:miter;stroke-miterlimit:10;stroke-dasharray:none;stroke-opacity:1"
       transform="matrix(1.3333333,0,0,-1.3333333,2394.6415,81.672267)"
       clip-path="url(#clipPath43)" />
  </g>
</svg>
